<svg width="22" height="20" fill="none" xmlns="http://www.w3.org/2000/svg"><g clip-path="url(#clip0)" fill="#AFB1B8"><path d="M21.434 5.88c-.049-1.063-.229-1.793-.486-2.426A4.866 4.866 0 0019.74 1.68a5.175 5.175 0 00-1.85-1.153C17.223.281 16.463.11 15.352.063 14.232.012 13.878 0 11.04 0 8.2 0 7.845.012 6.729.059 5.62.105 4.856.277 4.194.523A5.13 5.13 0 002.34 1.68a4.909 4.909 0 00-1.205 1.77C.876 4.087.697 4.813.648 5.876c-.054 1.07-.066 1.41-.066 4.126 0 2.715.012 3.055.061 4.122.05 1.063.23 1.793.487 2.426a4.917 4.917 0 001.209 1.774 5.175 5.175 0 001.85 1.152c.666.247 1.425.419 2.537.465 1.114.047 1.47.059 4.309.059 2.839 0 3.194-.012 4.309-.059 1.111-.046 1.875-.218 2.537-.464 1.405-.52 2.516-1.583 3.059-2.927.257-.637.437-1.364.486-2.426.049-1.067.061-1.407.061-4.122s-.004-3.055-.053-4.122zm-1.883 8.166c-.045.977-.216 1.504-.36 1.856a3.397 3.397 0 01-1.985 1.898c-.367.137-.922.301-1.94.344-1.102.047-1.433.059-4.223.059s-3.125-.012-4.224-.059c-1.02-.043-1.572-.207-1.94-.344a3.235 3.235 0 01-1.2-.746 3.1 3.1 0 01-.78-1.148c-.144-.352-.315-.883-.36-1.856-.05-1.055-.061-1.372-.061-4.04 0-2.669.012-2.99.06-4.04.046-.977.217-1.504.36-1.856.168-.434.433-.828.784-1.149a3.264 3.264 0 011.201-.746c.368-.137.923-.3 1.94-.344 1.103-.046 1.434-.058 4.224-.058 2.794 0 3.125.012 4.223.058 1.022.043 1.573.207 1.94.344.454.16.867.414 1.201.746.348.325.613.715.78 1.15.144.35.315.882.36 1.855.05 1.055.061 1.371.061 4.04 0 2.668-.012 2.98-.06 4.036z"/><path d="M11.039 4.864c-2.966 0-5.371 2.301-5.371 5.138 0 2.836 2.405 5.138 5.37 5.138 2.966 0 5.372-2.302 5.372-5.138 0-2.837-2.406-5.138-5.371-5.138zm0 8.47c-1.924 0-3.484-1.492-3.484-3.332 0-1.84 1.56-3.333 3.484-3.333s3.484 1.493 3.484 3.333-1.56 3.333-3.484 3.333zM17.877 4.661c0 .662-.562 1.2-1.255 1.2-.692 0-1.254-.538-1.254-1.2 0-.662.562-1.2 1.254-1.2.693 0 1.255.538 1.255 1.2z"/></g><defs><clipPath id="clip0"><path fill="#fff" transform="translate(.545)" d="M0 0h20.909v20H0z"/></clipPath></defs></svg>